# Blender v2.79 (sub 0) OBJ File: 'lots_of_assets.blend'
# www.blender.org
o RoadBarricadeD_PlasticWhite.000_RoadBarricadeD_PlasticWhite.002
v -11.378803 0.800000 -0.199999
v -11.378803 0.800000 0.199999
v 11.378807 0.800000 0.199999
v 11.378807 0.800000 -0.199999
v 11.378807 -0.800000 0.199999
v -11.378803 -0.800000 0.199999
v -11.378803 -0.800000 -0.199999
v 11.378807 -0.800000 -0.199999
vt 0.022164 0.878659
vt 0.022164 0.862163
vt 0.960776 0.862163
vt 0.960776 0.878659
vt 0.960776 0.961147
vt 0.022164 0.961147
vt 0.022164 0.944650
vt 0.960776 0.944650
vt 0.005667 0.878659
vt 0.005667 0.944650
vt 0.022164 0.796172
vt 0.960776 0.796172
vt 0.977273 0.878659
vt 0.977273 0.944650
vn -0.5774 0.5774 -0.5773
vn -0.5773 0.5774 0.5774
vn 0.5774 0.5774 0.5773
vn 0.5773 0.5774 -0.5774
vn 0.5773 -0.5774 0.5774
vn -0.5774 -0.5774 0.5773
vn -0.5773 -0.5774 -0.5774
vn 0.5774 -0.5774 -0.5773
vn -0.5774 0.5774 0.5773
vn -0.5774 0.5773 -0.5774
vn -0.5774 -0.5774 -0.5773
vn -0.5774 -0.5773 0.5774
vn 0.5773 0.5774 0.5774
vn -0.5774 0.5773 0.5774
vn -0.5773 -0.5774 0.5774
vn 0.5774 -0.5773 0.5774
vn 0.5774 0.5774 -0.5773
vn 0.5774 0.5773 0.5774
vn 0.5774 -0.5774 0.5773
vn 0.5774 -0.5773 -0.5774
vn -0.5773 0.5774 -0.5774
vn 0.5774 0.5773 -0.5774
vn 0.5773 -0.5774 -0.5774
vn -0.5774 -0.5773 -0.5774
s 1
f 1/1/1 2/2/2 3/3/3 4/4/4
s 2
f 5/5/5 6/6/6 7/7/7 8/8/8
s 3
f 2/9/9 1/1/10 7/7/11 6/10/12
s 4
f 3/3/13 2/2/14 6/11/15 5/12/16
s 5
f 4/4/17 3/13/18 5/14/19 8/8/20
s 6
f 1/1/21 4/4/22 8/8/23 7/7/24
