# Blender v2.79 (sub 0) OBJ File: 'lots_of_assets.blend'
# www.blender.org
o TrafficCylinder_PlasticWhite
v 2.892277 -2.824088 -0.000000
v 2.793726 -2.824088 -0.748577
v 2.793726 -0.963379 -0.748577
v 2.892277 -0.963378 -0.000000
v 2.504786 -2.824088 -1.446137
v 2.504786 -0.963378 -1.446137
v 2.045150 -2.824088 -2.045151
v 2.045148 -0.963378 -2.045151
v 1.446142 -2.824088 -2.504788
v 1.446142 -0.963377 -2.504787
v 0.748576 -2.824088 -2.793728
v 0.748576 -0.963377 -2.793728
v 0.000001 -2.824088 -2.892277
v 0.000001 -0.963377 -2.892277
v -0.748574 -2.824088 -2.793728
v -0.748574 -0.963378 -2.793728
v -1.446139 -2.824088 -2.504788
v -1.446139 -0.963377 -2.504787
v -2.045148 -2.824088 -2.045151
v -2.045148 -0.963378 -2.045151
v -2.504784 -2.824088 -1.446141
v -2.504784 -0.963379 -1.446140
v -2.793723 -2.824088 -0.748577
v -2.793723 -0.963379 -0.748577
v -2.892277 -2.824088 -0.000000
v -2.892277 -0.963378 -0.000000
v -2.793723 -2.824088 0.748573
v -2.793723 -0.963378 0.748573
v -2.504784 -2.824089 1.446136
v -2.504784 -0.963378 1.446136
v -2.045150 -2.824089 2.045151
v -2.045150 -0.963378 2.045151
v -1.446139 -2.824089 2.504783
v -1.446139 -0.963380 2.504784
v -0.748577 -2.824089 2.793724
v -0.748577 -0.963379 2.793724
v -0.000001 -2.824089 2.892277
v -0.000001 -0.963380 2.892277
v 0.748574 -2.824089 2.793728
v 0.748574 -0.963380 2.793728
v 1.446137 -2.824089 2.504787
v 1.446137 -0.963379 2.504787
v 2.045150 -2.824089 2.045151
v 2.045148 -0.963379 2.045151
v 2.504783 -2.824089 1.446140
v 2.504783 -0.963379 1.446140
v 2.793726 -2.824088 0.748581
v 2.793726 -0.963378 0.748581
v 2.492277 1.190945 0.000000
v 2.407355 1.190943 -0.645050
v 2.407355 2.824084 -0.645050
v 2.492277 2.824086 0.000000
v 2.158373 1.190943 -1.246139
v 2.158373 2.824085 -1.246139
v 1.762307 1.190943 -1.762310
v 1.762307 2.824085 -1.762306
v 1.246140 1.190945 -2.158375
v 1.246140 2.824088 -2.158375
v 0.645048 1.190945 -2.407356
v 0.645048 2.824088 -2.407352
v 0.000001 1.190945 -2.492279
v 0.000001 2.824086 -2.492279
v -0.645046 1.190945 -2.407356
v -0.645046 2.824085 -2.407356
v -1.246139 1.190945 -2.158375
v -1.246139 2.824086 -2.158375
v -1.762304 1.190943 -1.762310
v -1.762304 2.824085 -1.762306
v -2.158373 1.190945 -1.246139
v -2.158373 2.824085 -1.246139
v -2.407354 1.190943 -0.645050
v -2.407354 2.824084 -0.645050
v -2.492277 1.190945 0.000000
v -2.492277 2.824086 0.000000
v -2.407354 1.190945 0.645050
v -2.407354 2.824086 0.645050
v -2.158375 1.190945 1.246140
v -2.158375 2.824086 1.246140
v -1.762308 1.190944 1.762306
v -1.762308 2.824088 1.762307
v -1.246139 1.190943 2.158375
v -1.246139 2.824084 2.158375
v -0.645049 1.190943 2.407357
v -0.645049 2.824084 2.407357
v -0.000001 1.190944 2.492279
v -0.000001 2.824084 2.492279
v 0.645046 1.190943 2.407357
v 0.645048 2.824084 2.407357
v 1.246137 1.190943 2.158375
v 1.246137 2.824084 2.158375
v 1.762306 1.190944 1.762310
v 1.762306 2.824086 1.762310
v 2.158372 1.190945 1.246140
v 2.158372 2.824086 1.246140
v 2.407355 1.190945 0.645050
v 2.407355 2.824086 0.645050
vt 0.592204 0.339506
vt 0.559415 0.339505
vt 0.559415 0.258701
vt 0.592204 0.258701
vt 0.526625 0.339505
vt 0.526625 0.258701
vt 0.493835 0.339505
vt 0.493835 0.258701
vt 0.461046 0.339505
vt 0.461046 0.258701
vt 0.428256 0.339505
vt 0.428256 0.258700
vt 0.395467 0.339504
vt 0.395467 0.258700
vt 0.362677 0.339504
vt 0.362678 0.258700
vt 0.329888 0.339504
vt 0.329888 0.258700
vt 0.297099 0.339504
vt 0.297099 0.258700
vt 0.264310 0.339504
vt 0.264310 0.258700
vt 0.231522 0.339504
vt 0.231522 0.258700
vt 0.198733 0.339504
vt 0.198733 0.258700
vt 0.165944 0.339504
vt 0.165944 0.258700
vt 0.133155 0.339504
vt 0.133155 0.258700
vt 0.100366 0.339505
vt 0.100366 0.258700
vt 0.067578 0.339505
vt 0.067577 0.258701
vt 0.034789 0.339505
vt 0.034789 0.258701
vt 0.002000 0.339505
vt 0.002000 0.258701
vt 0.788939 0.339507
vt 0.756150 0.339506
vt 0.756150 0.258702
vt 0.788939 0.258702
vt 0.723361 0.339506
vt 0.723361 0.258702
vt 0.690572 0.339506
vt 0.690572 0.258702
vt 0.657783 0.339506
vt 0.657783 0.258702
vt 0.624993 0.339506
vt 0.624993 0.258702
vt 0.510579 0.597322
vt 0.482324 0.597322
vt 0.482324 0.526401
vt 0.510579 0.526401
vt 0.454069 0.597322
vt 0.454069 0.526401
vt 0.425815 0.597322
vt 0.425815 0.526401
vt 0.397560 0.597322
vt 0.397560 0.526401
vt 0.369305 0.597322
vt 0.369306 0.526400
vt 0.341050 0.597322
vt 0.341051 0.526400
vt 0.312796 0.597322
vt 0.312796 0.526400
vt 0.284541 0.597322
vt 0.284542 0.526400
vt 0.256287 0.597321
vt 0.256287 0.526400
vt 0.228033 0.597321
vt 0.228033 0.526400
vt 0.199779 0.597321
vt 0.199779 0.526400
vt 0.171525 0.597322
vt 0.171525 0.526400
vt 0.143270 0.597322
vt 0.143270 0.526400
vt 0.115016 0.597322
vt 0.115016 0.526400
vt 0.086762 0.597322
vt 0.086762 0.526400
vt 0.058508 0.597322
vt 0.058508 0.526401
vt 0.030254 0.597323
vt 0.030254 0.526401
vt 0.002000 0.597323
vt 0.002000 0.526401
vt 0.680104 0.597324
vt 0.651850 0.597324
vt 0.651851 0.526402
vt 0.680105 0.526402
vt 0.623596 0.597323
vt 0.623597 0.526402
vt 0.595342 0.597323
vt 0.595342 0.526401
vt 0.567088 0.597323
vt 0.567088 0.526401
vt 0.538833 0.597323
vt 0.538833 0.526401
vn 1.0000 0.0000 -0.0000
vn 0.9659 0.0000 -0.2588
vn 0.8660 0.0000 -0.5000
vn 0.7071 0.0000 -0.7071
vn 0.5000 0.0000 -0.8660
vn 0.2588 0.0000 -0.9659
vn 0.0000 0.0000 -1.0000
vn -0.2588 0.0000 -0.9659
vn -0.5000 0.0000 -0.8660
vn -0.7071 0.0000 -0.7071
vn -0.8660 0.0000 -0.5000
vn -0.9659 0.0000 -0.2588
vn -1.0000 0.0000 0.0000
vn -0.9659 -0.0000 0.2588
vn -0.8660 -0.0000 0.5000
vn -0.7071 -0.0000 0.7071
vn -0.5000 -0.0000 0.8660
vn -0.2588 -0.0000 0.9659
vn -0.0000 -0.0000 1.0000
vn 0.2588 -0.0000 0.9659
vn 0.5000 0.0000 0.8660
vn 0.7071 0.0000 0.7071
vn 0.8660 0.0000 0.5000
vn 0.9659 -0.0000 0.2588
s 1
f 1/1/1 2/2/2 3/3/2 4/4/1
f 2/2/2 5/5/3 6/6/3 3/3/2
f 5/5/3 7/7/4 8/8/4 6/6/3
f 7/7/4 9/9/5 10/10/5 8/8/4
f 9/9/5 11/11/6 12/12/6 10/10/5
f 11/11/6 13/13/7 14/14/7 12/12/6
f 13/13/7 15/15/8 16/16/8 14/14/7
f 15/15/8 17/17/9 18/18/9 16/16/8
f 17/17/9 19/19/10 20/20/10 18/18/9
f 19/19/10 21/21/11 22/22/11 20/20/10
f 21/21/11 23/23/12 24/24/12 22/22/11
f 23/23/12 25/25/13 26/26/13 24/24/12
f 25/25/13 27/27/14 28/28/14 26/26/13
f 27/27/14 29/29/15 30/30/15 28/28/14
f 29/29/15 31/31/16 32/32/16 30/30/15
f 31/31/16 33/33/17 34/34/17 32/32/16
f 33/33/17 35/35/18 36/36/18 34/34/17
f 35/35/18 37/37/19 38/38/19 36/36/18
f 37/39/19 39/40/20 40/41/20 38/42/19
f 39/40/20 41/43/21 42/44/21 40/41/20
f 41/43/21 43/45/22 44/46/22 42/44/21
f 43/45/22 45/47/23 46/48/23 44/46/22
f 45/47/23 47/49/24 48/50/24 46/48/23
f 47/49/24 1/1/1 4/4/1 48/50/24
s 2
f 49/51/1 50/52/2 51/53/2 52/54/1
f 50/52/2 53/55/3 54/56/3 51/53/2
f 53/55/3 55/57/4 56/58/4 54/56/3
f 55/57/4 57/59/5 58/60/5 56/58/4
f 57/59/5 59/61/6 60/62/6 58/60/5
f 59/61/6 61/63/7 62/64/7 60/62/6
f 61/63/7 63/65/8 64/66/8 62/64/7
f 63/65/8 65/67/9 66/68/9 64/66/8
f 65/67/9 67/69/10 68/70/10 66/68/9
f 67/69/10 69/71/11 70/72/11 68/70/10
f 69/71/11 71/73/12 72/74/12 70/72/11
f 71/73/12 73/75/13 74/76/13 72/74/12
f 73/75/13 75/77/14 76/78/14 74/76/13
f 75/77/14 77/79/15 78/80/15 76/78/14
f 77/79/15 79/81/16 80/82/16 78/80/15
f 79/81/16 81/83/17 82/84/17 80/82/16
f 81/83/17 83/85/18 84/86/18 82/84/17
f 83/85/18 85/87/19 86/88/19 84/86/18
f 85/89/19 87/90/20 88/91/20 86/92/19
f 87/90/20 89/93/21 90/94/21 88/91/20
f 89/93/21 91/95/22 92/96/22 90/94/21
f 91/95/22 93/97/23 94/98/23 92/96/22
f 93/97/23 95/99/24 96/100/24 94/98/23
f 95/99/24 49/51/1 52/54/1 96/100/24
